<mxfile host="Electron" modified="2024-02-02T05:58:06.441Z" agent="Mozilla/5.0 (Windows NT 10.0; Win64; x64) AppleWebKit/537.36 (KHTML, like Gecko) draw.io/23.0.2 Chrome/120.0.6099.109 Electron/28.1.0 Safari/537.36" etag="_8IPVIKphsCLdrwD3giQ" version="23.0.2" type="device">
  <diagram name="Page-1" id="vdbA3EBE6HAMDY2MgLwk">
    <mxGraphModel dx="2085" dy="740" grid="1" gridSize="10" guides="1" tooltips="1" connect="1" arrows="1" fold="1" page="1" pageScale="1" pageWidth="850" pageHeight="1100" math="0" shadow="0">
      <root>
        <mxCell id="0" />
        <mxCell id="1" parent="0" />
        <mxCell id="nIr9H8_5c5_UZo4wFYmB-15" value="AWS Cloud" style="sketch=0;outlineConnect=0;html=1;whiteSpace=wrap;fontSize=12;fontStyle=0;shape=mxgraph.aws4.group;grIcon=mxgraph.aws4.group_aws_cloud;fillColor=none;verticalAlign=top;align=left;spacingLeft=30;dashed=0;" parent="1" vertex="1">
          <mxGeometry x="42.5" y="40" width="970" height="760" as="geometry" />
        </mxCell>
        <mxCell id="nIr9H8_5c5_UZo4wFYmB-49" value="VPC" style="sketch=0;outlineConnect=0;html=1;whiteSpace=wrap;fontSize=12;fontStyle=0;shape=mxgraph.aws4.group;grIcon=mxgraph.aws4.group_vpc;verticalAlign=top;align=left;spacingLeft=30;dashed=0;container=0;" parent="1" vertex="1">
          <mxGeometry x="205" y="120" width="645" height="600" as="geometry" />
        </mxCell>
        <mxCell id="7ubnZMcYBjH7MBwTdfx3-5" value="AZ2" style="sketch=0;outlineConnect=0;gradientColor=none;html=1;whiteSpace=wrap;fontSize=12;fontStyle=0;shape=mxgraph.aws4.group;grIcon=mxgraph.aws4.group_availability_zone;strokeColor=#545B64;fillColor=none;verticalAlign=top;align=left;spacingLeft=30;fontColor=#545B64;dashed=1;movable=1;resizable=1;rotatable=1;deletable=1;editable=1;locked=0;connectable=1;" vertex="1" parent="1">
          <mxGeometry x="250" y="491.21" width="560" height="170.71" as="geometry" />
        </mxCell>
        <mxCell id="nIr9H8_5c5_UZo4wFYmB-28" value="Region&lt;br&gt;" style="points=[[0,0],[0.25,0],[0.5,0],[0.75,0],[1,0],[1,0.25],[1,0.5],[1,0.75],[1,1],[0.75,1],[0.5,1],[0.25,1],[0,1],[0,0.75],[0,0.5],[0,0.25]];outlineConnect=0;gradientColor=none;html=1;whiteSpace=wrap;fontSize=12;fontStyle=0;container=0;pointerEvents=0;collapsible=0;recursiveResize=0;shape=mxgraph.aws4.group;grIcon=mxgraph.aws4.group_region;strokeColor=#147EBA;fillColor=none;verticalAlign=top;align=left;spacingLeft=30;fontColor=#147EBA;dashed=1;" parent="1" vertex="1">
          <mxGeometry x="80" y="80" width="880" height="680" as="geometry" />
        </mxCell>
        <mxCell id="nIr9H8_5c5_UZo4wFYmB-34" value="AZ1" style="sketch=0;outlineConnect=0;gradientColor=none;html=1;whiteSpace=wrap;fontSize=12;fontStyle=0;shape=mxgraph.aws4.group;grIcon=mxgraph.aws4.group_availability_zone;strokeColor=#545B64;fillColor=none;verticalAlign=top;align=left;spacingLeft=30;fontColor=#545B64;dashed=1;movable=1;resizable=1;rotatable=1;deletable=1;editable=1;locked=0;connectable=1;" parent="1" vertex="1">
          <mxGeometry x="250" y="189.71" width="560" height="180.71" as="geometry" />
        </mxCell>
        <mxCell id="nIr9H8_5c5_UZo4wFYmB-35" value="PubSub1" style="points=[[0,0],[0.25,0],[0.5,0],[0.75,0],[1,0],[1,0.25],[1,0.5],[1,0.75],[1,1],[0.75,1],[0.5,1],[0.25,1],[0,1],[0,0.75],[0,0.5],[0,0.25]];outlineConnect=0;gradientColor=none;html=1;whiteSpace=wrap;fontSize=12;fontStyle=0;container=1;pointerEvents=0;collapsible=0;recursiveResize=0;shape=mxgraph.aws4.group;grIcon=mxgraph.aws4.group_security_group;grStroke=0;strokeColor=#248814;fillColor=#E9F3E6;verticalAlign=top;align=left;spacingLeft=30;fontColor=#248814;dashed=0;" parent="1" vertex="1">
          <mxGeometry x="290" y="220" width="130" height="120" as="geometry" />
        </mxCell>
        <mxCell id="7ubnZMcYBjH7MBwTdfx3-1" value="End User&lt;br&gt;" style="sketch=0;outlineConnect=0;fontColor=#232F3E;gradientColor=none;fillColor=#232F3D;strokeColor=none;dashed=0;verticalLabelPosition=bottom;verticalAlign=top;align=center;html=1;fontSize=12;fontStyle=0;aspect=fixed;pointerEvents=1;shape=mxgraph.aws4.users;" vertex="1" parent="1">
          <mxGeometry x="-58" y="480" width="58" height="58" as="geometry" />
        </mxCell>
        <mxCell id="7ubnZMcYBjH7MBwTdfx3-6" value="PubSub2" style="points=[[0,0],[0.25,0],[0.5,0],[0.75,0],[1,0],[1,0.25],[1,0.5],[1,0.75],[1,1],[0.75,1],[0.5,1],[0.25,1],[0,1],[0,0.75],[0,0.5],[0,0.25]];outlineConnect=0;gradientColor=none;html=1;whiteSpace=wrap;fontSize=12;fontStyle=0;container=1;pointerEvents=0;collapsible=0;recursiveResize=0;shape=mxgraph.aws4.group;grIcon=mxgraph.aws4.group_security_group;grStroke=0;strokeColor=#248814;fillColor=#E9F3E6;verticalAlign=top;align=left;spacingLeft=30;fontColor=#248814;dashed=0;" vertex="1" parent="1">
          <mxGeometry x="290" y="520" width="130" height="120" as="geometry" />
        </mxCell>
        <mxCell id="7ubnZMcYBjH7MBwTdfx3-18" value="NATgw2" style="outlineConnect=0;dashed=0;verticalLabelPosition=bottom;verticalAlign=top;align=center;html=1;shape=mxgraph.aws3.vpc_nat_gateway;fillColor=#F58534;gradientColor=none;" vertex="1" parent="7ubnZMcYBjH7MBwTdfx3-6">
          <mxGeometry x="40" y="34" width="50" height="52" as="geometry" />
        </mxCell>
        <mxCell id="7ubnZMcYBjH7MBwTdfx3-7" value="PrivSub2" style="points=[[0,0],[0.25,0],[0.5,0],[0.75,0],[1,0],[1,0.25],[1,0.5],[1,0.75],[1,1],[0.75,1],[0.5,1],[0.25,1],[0,1],[0,0.75],[0,0.5],[0,0.25]];outlineConnect=0;gradientColor=none;html=1;whiteSpace=wrap;fontSize=12;fontStyle=0;container=1;pointerEvents=0;collapsible=0;recursiveResize=0;shape=mxgraph.aws4.group;grIcon=mxgraph.aws4.group_security_group;grStroke=0;strokeColor=#147EBA;fillColor=#E6F2F8;verticalAlign=top;align=left;spacingLeft=30;fontColor=#147EBA;dashed=0;" vertex="1" parent="1">
          <mxGeometry x="620" y="510" width="140" height="130" as="geometry" />
        </mxCell>
        <mxCell id="7ubnZMcYBjH7MBwTdfx3-9" value="" style="sketch=0;points=[[0,0,0],[0.25,0,0],[0.5,0,0],[0.75,0,0],[1,0,0],[0,1,0],[0.25,1,0],[0.5,1,0],[0.75,1,0],[1,1,0],[0,0.25,0],[0,0.5,0],[0,0.75,0],[1,0.25,0],[1,0.5,0],[1,0.75,0]];outlineConnect=0;fontColor=#232F3E;fillColor=#ED7100;strokeColor=#ffffff;dashed=0;verticalLabelPosition=bottom;verticalAlign=top;align=center;html=1;fontSize=12;fontStyle=0;aspect=fixed;shape=mxgraph.aws4.resourceIcon;resIcon=mxgraph.aws4.ec2;" vertex="1" parent="7ubnZMcYBjH7MBwTdfx3-7">
          <mxGeometry x="44.5" y="40" width="60" height="60" as="geometry" />
        </mxCell>
        <mxCell id="7ubnZMcYBjH7MBwTdfx3-10" value="Internet" style="sketch=0;outlineConnect=0;fontColor=#232F3E;gradientColor=none;fillColor=#232F3D;strokeColor=none;dashed=0;verticalLabelPosition=bottom;verticalAlign=top;align=center;html=1;fontSize=12;fontStyle=0;aspect=fixed;pointerEvents=1;shape=mxgraph.aws4.internet_alt22;" vertex="1" parent="1">
          <mxGeometry x="-90" y="210" width="80.29" height="80.29" as="geometry" />
        </mxCell>
        <mxCell id="7ubnZMcYBjH7MBwTdfx3-22" value="" style="edgeStyle=orthogonalEdgeStyle;rounded=0;orthogonalLoop=1;jettySize=auto;html=1;" edge="1" parent="1" source="7ubnZMcYBjH7MBwTdfx3-11" target="7ubnZMcYBjH7MBwTdfx3-19">
          <mxGeometry relative="1" as="geometry" />
        </mxCell>
        <mxCell id="7ubnZMcYBjH7MBwTdfx3-29" value="" style="edgeStyle=orthogonalEdgeStyle;rounded=0;orthogonalLoop=1;jettySize=auto;html=1;" edge="1" parent="1" source="7ubnZMcYBjH7MBwTdfx3-11" target="7ubnZMcYBjH7MBwTdfx3-18">
          <mxGeometry relative="1" as="geometry" />
        </mxCell>
        <mxCell id="7ubnZMcYBjH7MBwTdfx3-11" value="PubRouteTable&lt;br&gt;" style="outlineConnect=0;dashed=0;verticalLabelPosition=bottom;verticalAlign=top;align=center;html=1;shape=mxgraph.aws3.route_table;fillColor=#F58536;gradientColor=none;" vertex="1" parent="1">
          <mxGeometry x="280" y="401.35" width="75" height="50" as="geometry" />
        </mxCell>
        <mxCell id="7ubnZMcYBjH7MBwTdfx3-12" value="PrivRouteTable1" style="outlineConnect=0;dashed=0;verticalLabelPosition=bottom;verticalAlign=top;align=center;html=1;shape=mxgraph.aws3.route_table;fillColor=#F58536;gradientColor=none;" vertex="1" parent="1">
          <mxGeometry x="480" y="255.56999999999996" width="65" height="49" as="geometry" />
        </mxCell>
        <mxCell id="7ubnZMcYBjH7MBwTdfx3-15" value="" style="edgeStyle=orthogonalEdgeStyle;rounded=0;orthogonalLoop=1;jettySize=auto;html=1;" edge="1" parent="1" source="7ubnZMcYBjH7MBwTdfx3-14" target="7ubnZMcYBjH7MBwTdfx3-9">
          <mxGeometry relative="1" as="geometry" />
        </mxCell>
        <mxCell id="7ubnZMcYBjH7MBwTdfx3-14" value="PrivRouteTable2" style="outlineConnect=0;dashed=0;verticalLabelPosition=bottom;verticalAlign=top;align=center;html=1;shape=mxgraph.aws3.route_table;fillColor=#F58536;gradientColor=none;" vertex="1" parent="1">
          <mxGeometry x="480" y="555.5" width="65" height="49" as="geometry" />
        </mxCell>
        <mxCell id="7ubnZMcYBjH7MBwTdfx3-21" value="" style="edgeStyle=orthogonalEdgeStyle;rounded=0;orthogonalLoop=1;jettySize=auto;html=1;" edge="1" parent="1" source="7ubnZMcYBjH7MBwTdfx3-18" target="7ubnZMcYBjH7MBwTdfx3-14">
          <mxGeometry relative="1" as="geometry" />
        </mxCell>
        <mxCell id="7ubnZMcYBjH7MBwTdfx3-20" value="" style="edgeStyle=orthogonalEdgeStyle;rounded=0;orthogonalLoop=1;jettySize=auto;html=1;" edge="1" parent="1" source="7ubnZMcYBjH7MBwTdfx3-19" target="7ubnZMcYBjH7MBwTdfx3-12">
          <mxGeometry relative="1" as="geometry" />
        </mxCell>
        <mxCell id="7ubnZMcYBjH7MBwTdfx3-19" value="NATgw1" style="outlineConnect=0;dashed=0;verticalLabelPosition=bottom;verticalAlign=top;align=center;html=1;shape=mxgraph.aws3.vpc_nat_gateway;fillColor=#F58534;gradientColor=none;" vertex="1" parent="1">
          <mxGeometry x="330" y="253.64999999999998" width="50" height="52" as="geometry" />
        </mxCell>
        <mxCell id="7ubnZMcYBjH7MBwTdfx3-36" style="edgeStyle=orthogonalEdgeStyle;rounded=0;orthogonalLoop=1;jettySize=auto;html=1;" edge="1" parent="1" source="7ubnZMcYBjH7MBwTdfx3-35">
          <mxGeometry relative="1" as="geometry">
            <mxPoint y="240" as="targetPoint" />
          </mxGeometry>
        </mxCell>
        <mxCell id="7ubnZMcYBjH7MBwTdfx3-35" value="Igw" style="sketch=0;outlineConnect=0;fontColor=#232F3E;gradientColor=none;fillColor=#8C4FFF;strokeColor=none;dashed=0;verticalLabelPosition=bottom;verticalAlign=top;align=center;html=1;fontSize=12;fontStyle=0;aspect=fixed;pointerEvents=1;shape=mxgraph.aws4.internet_gateway;" vertex="1" parent="1">
          <mxGeometry x="130" y="239.99999999999997" width="58" height="58" as="geometry" />
        </mxCell>
        <mxCell id="nIr9H8_5c5_UZo4wFYmB-36" value="PrivSub1" style="points=[[0,0],[0.25,0],[0.5,0],[0.75,0],[1,0],[1,0.25],[1,0.5],[1,0.75],[1,1],[0.75,1],[0.5,1],[0.25,1],[0,1],[0,0.75],[0,0.5],[0,0.25]];outlineConnect=0;gradientColor=none;html=1;whiteSpace=wrap;fontSize=12;fontStyle=0;container=1;pointerEvents=0;collapsible=0;recursiveResize=0;shape=mxgraph.aws4.group;grIcon=mxgraph.aws4.group_security_group;grStroke=0;strokeColor=#147EBA;fillColor=#E6F2F8;verticalAlign=top;align=left;spacingLeft=30;fontColor=#147EBA;dashed=0;" parent="1" vertex="1">
          <mxGeometry x="620" y="217.69" width="140" height="124.75" as="geometry" />
        </mxCell>
        <mxCell id="7ubnZMcYBjH7MBwTdfx3-8" value="" style="sketch=0;points=[[0,0,0],[0.25,0,0],[0.5,0,0],[0.75,0,0],[1,0,0],[0,1,0],[0.25,1,0],[0.5,1,0],[0.75,1,0],[1,1,0],[0,0.25,0],[0,0.5,0],[0,0.75,0],[1,0.25,0],[1,0.5,0],[1,0.75,0]];outlineConnect=0;fontColor=#232F3E;fillColor=#ED7100;strokeColor=#ffffff;dashed=0;verticalLabelPosition=bottom;verticalAlign=top;align=center;html=1;fontSize=12;fontStyle=0;aspect=fixed;shape=mxgraph.aws4.resourceIcon;resIcon=mxgraph.aws4.ec2;" vertex="1" parent="nIr9H8_5c5_UZo4wFYmB-36">
          <mxGeometry x="39.5" y="32.45" width="59.86" height="59.86" as="geometry" />
        </mxCell>
        <mxCell id="7ubnZMcYBjH7MBwTdfx3-54" style="edgeStyle=orthogonalEdgeStyle;rounded=0;orthogonalLoop=1;jettySize=auto;html=1;" edge="1" parent="1" source="7ubnZMcYBjH7MBwTdfx3-46" target="7ubnZMcYBjH7MBwTdfx3-51">
          <mxGeometry relative="1" as="geometry" />
        </mxCell>
        <mxCell id="7ubnZMcYBjH7MBwTdfx3-46" value="EC2 AutoSclGrp" style="points=[[0,0],[0.25,0],[0.5,0],[0.75,0],[1,0],[1,0.25],[1,0.5],[1,0.75],[1,1],[0.75,1],[0.5,1],[0.25,1],[0,1],[0,0.75],[0,0.5],[0,0.25]];outlineConnect=0;gradientColor=none;html=1;whiteSpace=wrap;fontSize=12;fontStyle=0;container=1;pointerEvents=0;collapsible=0;recursiveResize=0;shape=mxgraph.aws4.groupCenter;grIcon=mxgraph.aws4.group_auto_scaling_group;grStroke=1;strokeColor=#D86613;fillColor=none;verticalAlign=top;align=center;fontColor=#D86613;dashed=1;spacingTop=25;" vertex="1" parent="1">
          <mxGeometry x="590" y="130" width="200" height="580" as="geometry" />
        </mxCell>
        <mxCell id="7ubnZMcYBjH7MBwTdfx3-16" value="" style="edgeStyle=orthogonalEdgeStyle;rounded=0;orthogonalLoop=1;jettySize=auto;html=1;" edge="1" parent="1" source="7ubnZMcYBjH7MBwTdfx3-12" target="7ubnZMcYBjH7MBwTdfx3-8">
          <mxGeometry relative="1" as="geometry" />
        </mxCell>
        <mxCell id="7ubnZMcYBjH7MBwTdfx3-47" value="EC2 SecGroup" style="fillColor=none;strokeColor=#DD3522;verticalAlign=top;fontStyle=0;fontColor=#DD3522;whiteSpace=wrap;html=1;" vertex="1" parent="1">
          <mxGeometry x="600" y="191.92" width="180" height="470" as="geometry" />
        </mxCell>
        <mxCell id="7ubnZMcYBjH7MBwTdfx3-49" value="ALB SecGrp&lt;br&gt;" style="fillColor=none;strokeColor=#DD3522;verticalAlign=top;fontStyle=0;fontColor=#DD3522;whiteSpace=wrap;html=1;" vertex="1" parent="1">
          <mxGeometry x="158.63" y="375.57" width="90" height="104.43" as="geometry" />
        </mxCell>
        <mxCell id="7ubnZMcYBjH7MBwTdfx3-2" value="ALB" style="outlineConnect=0;dashed=0;verticalLabelPosition=bottom;verticalAlign=top;align=center;html=1;shape=mxgraph.aws3.application_load_balancer;fillColor=#F58536;gradientColor=none;" vertex="1" parent="1">
          <mxGeometry x="180.01" y="401.35" width="47.25" height="51.13" as="geometry" />
        </mxCell>
        <mxCell id="7ubnZMcYBjH7MBwTdfx3-41" style="edgeStyle=orthogonalEdgeStyle;rounded=0;orthogonalLoop=1;jettySize=auto;html=1;exitX=1;exitY=0.5;exitDx=0;exitDy=0;exitPerimeter=0;entryX=0;entryY=0.5;entryDx=0;entryDy=0;entryPerimeter=0;" edge="1" parent="1" source="7ubnZMcYBjH7MBwTdfx3-2" target="7ubnZMcYBjH7MBwTdfx3-11">
          <mxGeometry relative="1" as="geometry" />
        </mxCell>
        <mxCell id="7ubnZMcYBjH7MBwTdfx3-40" style="edgeStyle=orthogonalEdgeStyle;rounded=0;orthogonalLoop=1;jettySize=auto;html=1;entryX=0;entryY=0.5;entryDx=0;entryDy=0;entryPerimeter=0;" edge="1" parent="1" source="7ubnZMcYBjH7MBwTdfx3-1" target="7ubnZMcYBjH7MBwTdfx3-2">
          <mxGeometry relative="1" as="geometry" />
        </mxCell>
        <mxCell id="7ubnZMcYBjH7MBwTdfx3-56" value="" style="edgeStyle=orthogonalEdgeStyle;rounded=0;orthogonalLoop=1;jettySize=auto;html=1;" edge="1" parent="1" source="7ubnZMcYBjH7MBwTdfx3-51" target="7ubnZMcYBjH7MBwTdfx3-52">
          <mxGeometry relative="1" as="geometry" />
        </mxCell>
        <mxCell id="7ubnZMcYBjH7MBwTdfx3-51" value="EC2 Role" style="sketch=0;outlineConnect=0;fontColor=#232F3E;gradientColor=none;fillColor=#DD344C;strokeColor=none;dashed=0;verticalLabelPosition=bottom;verticalAlign=top;align=center;html=1;fontSize=12;fontStyle=0;aspect=fixed;pointerEvents=1;shape=mxgraph.aws4.role;rotation=0;" vertex="1" parent="1">
          <mxGeometry x="874.85" y="265.28000000000003" width="58" height="32.72" as="geometry" />
        </mxCell>
        <mxCell id="7ubnZMcYBjH7MBwTdfx3-52" value="S3 Bucket" style="sketch=0;outlineConnect=0;fontColor=#232F3E;gradientColor=none;fillColor=#7AA116;strokeColor=none;dashed=0;verticalLabelPosition=bottom;verticalAlign=top;align=center;html=1;fontSize=12;fontStyle=0;aspect=fixed;pointerEvents=1;shape=mxgraph.aws4.bucket;" vertex="1" parent="1">
          <mxGeometry x="880.01" y="410.00000000000006" width="47.69" height="49.6" as="geometry" />
        </mxCell>
      </root>
    </mxGraphModel>
  </diagram>
</mxfile>
